<svg width="90" height="35" viewBox="0 0 90 35" fill="none" xmlns="http://www.w3.org/2000/svg">
<path d="M0.265625 5.60156V4.10156C4.10938 4.10156 7.02344 3.07812 9.00781 1.03125C9.55469 1.03125 9.875 1.09375 9.96875 1.21875C10.0625 1.34375 10.1094 1.69531 10.1094 2.27344V29.2031C10.1094 30.1562 10.3438 30.7812 10.8125 31.0781C11.2812 31.375 12.5391 31.5234 14.5859 31.5234H16.1094V33C14.9844 32.9062 12.3906 32.8594 8.32812 32.8594C4.26562 32.8594 1.67969 32.9062 0.570312 33V31.5234H2.09375C4.10938 31.5234 5.35938 31.3828 5.84375 31.1016C6.32812 30.8047 6.57031 30.1719 6.57031 29.2031V4.33594C4.89844 5.17969 2.79688 5.60156 0.265625 5.60156ZM22.6953 10.4297L24.2656 0.5625H25.4609C25.5547 0.953125 25.6797 1.23438 25.8359 1.40625C26.0078 1.57812 26.5469 1.73438 27.4531 1.875C28.375 2.01562 29.7656 2.08594 31.625 2.08594H43.2734C43.2734 2.82031 43.1328 3.38281 42.8516 3.77344L36.3594 12.8906C34.9844 14.8125 33.9922 17.5469 33.3828 21.0938C33.0234 23.4688 32.8516 26.0938 32.8672 28.9688V31.4062C32.8672 33.1719 32.125 34.0547 30.6406 34.0547C29.1719 34.0547 28.4375 33.1719 28.4375 31.4062C28.4375 25.2969 30.4062 19.2812 34.3438 13.3594C34.7656 12.75 35.75 11.3594 37.2969 9.1875C38.8594 7.01562 39.6719 5.88281 39.7344 5.78906H29.7969C26.8906 5.78906 25.3203 5.88281 25.0859 6.07031C24.7734 6.35156 24.375 7.80469 23.8906 10.4297H22.6953ZM46.3906 33C46.3906 32.4219 46.4141 32.0469 46.4609 31.875C46.5234 31.7031 46.6797 31.4844 46.9297 31.2188L56.1406 20.9531C59.5 17.1719 61.1797 13.6328 61.1797 10.3359C61.1797 8.19531 60.6172 6.35938 59.4922 4.82812C58.3828 3.29688 56.8047 2.53125 54.7578 2.53125C53.3516 2.53125 52.0547 2.96094 50.8672 3.82031C49.6797 4.67969 48.8125 5.875 48.2656 7.40625C48.3594 7.375 48.5703 7.35938 48.8984 7.35938C49.6953 7.35938 50.3125 7.60938 50.75 8.10938C51.2031 8.60938 51.4297 9.19531 51.4297 9.86719C51.4297 10.7266 51.1484 11.3672 50.5859 11.7891C50.0391 12.1953 49.4922 12.3984 48.9453 12.3984C48.7266 12.3984 48.4688 12.375 48.1719 12.3281C47.8906 12.2812 47.5234 12.0391 47.0703 11.6016C46.6172 11.1484 46.3906 10.5234 46.3906 9.72656C46.3906 7.49219 47.2344 5.48438 48.9219 3.70312C50.625 1.92188 52.7734 1.03125 55.3672 1.03125C58.3047 1.03125 60.7344 1.90625 62.6562 3.65625C64.5938 5.39062 65.5625 7.61719 65.5625 10.3359C65.5625 11.2891 65.4141 12.2031 65.1172 13.0781C64.8359 13.9375 64.5 14.7031 64.1094 15.375C63.7344 16.0469 63.0312 16.9219 62 18C60.9688 19.0781 60.0391 20 59.2109 20.7656C58.3828 21.5312 57.0391 22.7266 55.1797 24.3516L50.0938 29.2969H58.7422C61.5547 29.2969 63.0703 29.1719 63.2891 28.9219C63.6016 28.4688 63.9531 27.0469 64.3438 24.6562H65.5625L64.2031 33H46.3906ZM70.0156 11.8359C70.0156 10.1328 70.2656 8.70312 70.7656 7.54688C71.2656 6.375 72.0391 5.21094 73.0859 4.05469C75.0078 2.03906 77.3594 1.03125 80.1406 1.03125C81.3281 1.03125 82.4453 1.28125 83.4922 1.78125C84.5547 2.28125 85.5859 3.10156 86.5859 4.24219C87.6016 5.36719 88.4141 7.04688 89.0234 9.28125C89.6328 11.5 89.9375 14.1406 89.9375 17.2031C89.9375 22.1562 88.7344 26.2031 86.3281 29.3438C83.9375 32.4844 81.125 34.0547 77.8906 34.0547C75.8438 34.0547 74.2188 33.5938 73.0156 32.6719C71.8125 31.7344 71.2109 30.4688 71.2109 28.875C71.2109 28.0469 71.4453 27.4609 71.9141 27.1172C72.3828 26.7578 72.8828 26.5781 73.4141 26.5781C73.9922 26.5781 74.5078 26.7734 74.9609 27.1641C75.4141 27.5391 75.6406 28.0781 75.6406 28.7812C75.6406 29.3594 75.4531 29.875 75.0781 30.3281C74.7188 30.7656 74.0703 30.9844 73.1328 30.9844C74.0547 32.1406 75.625 32.7188 77.8438 32.7188C78.6406 32.7188 79.4375 32.5391 80.2344 32.1797C81.0312 31.8047 81.8594 31.1719 82.7188 30.2812C83.5938 29.375 84.2969 27.9766 84.8281 26.0859C85.3594 24.1953 85.625 21.9219 85.625 19.2656V17.7422C84.3438 20.9453 82.3438 22.5469 79.625 22.5469C76.9375 22.5469 74.6641 21.5156 72.8047 19.4531C70.9453 17.3906 70.0156 14.8516 70.0156 11.8359ZM74.3281 11.8828C74.3281 15.0547 74.6172 17.2266 75.1953 18.3984C76.1797 20.4141 77.6719 21.4219 79.6719 21.4219C81.625 21.4219 83.0859 20.5547 84.0547 18.8203C85.0391 17.0703 85.5312 15.0625 85.5312 12.7969C85.5312 9.65625 85.2734 7.39844 84.7578 6.02344C83.8047 3.49219 82.2656 2.22656 80.1406 2.22656C78.0312 2.22656 76.4297 3.23438 75.3359 5.25C74.6641 6.4375 74.3281 8.64844 74.3281 11.8828Z" fill="black"/>
</svg>
